<?xml version="1.0" encoding="UTF-8" standalone="no"?>
<svg viewBox="64 0 64 64" xmlns="http://www.w3.org/2000/svg">
<defs>
  <radialGradient cx="16.02803" cy="16.84718" gradientTransform="matrix(.91888,.94532,-.71707,.69701,13.38069,-10.0471)" gradientUnits="userSpaceOnUse" id="red" r="27.54545">
  <stop offset="0" stop-color="#ff9b9b"/>
  <stop offset="1" stop-color="#f00000"/>
  </radialGradient>
</defs>

<g transform="translate(4.49978,-.5)">
<path d="m55.09091,27.72727a27.54545,27.54545 0 1,1 -55.09091,0 27.54545,27.54545 0 1,1 55.09091,0z" fill="url(#red)" stroke="#be0000" stroke-linecap="round" stroke-linejoin="round" stroke-width="2.50379" transform="matrix(.99849,0,0,.99849,63.99622,4.81467)"/>
<path d="m95.59375,19.3125c-1.79796,1.55093-3.14458,4.36915-4.53125,5.84375-2.63154-2.17696-3.8188-6.23582-6.65625-7.375-3.44065.91828-8.90425,4.13536-4.875,7.625 2.05764,3.04234 6.19448,5.74641 7.15625,8.90625-1.4673,3.78945-4.291,6.61503-7.03125,9.375 1.33993,4.67542 7.75481.52478 10.34375-1.75 2.0648-4.63378 3.56831.89824 5.49936,2.89102 1.54054,6.22268 9.80416,4.40342 10.5216-.73944-2.83963-4.54886-6.78177-8.92436-9.52096-13.40158 1.08513-4.65424 5.63344-7.77039 6.6875-12.28125-1.78928-3.12228-5.28131.35232-7.59375.90625z" fill="#fff"/>
</g>
</svg>
