<?xml version="1.0" encoding="UTF-8" standalone="no"?>
<svg viewBox="0 0 64 64" xmlns="http://www.w3.org/2000/svg">
<defs>
  <radialGradient cx="16.02803" cy="16.84718" gradientTransform="matrix(.91888,.94532,-.71707,.69701,13.38069,-10.0471)" gradientUnits="userSpaceOnUse" id="green2" r="27.54545">
  <stop offset="0" stop-color="#9bffb3"/>
  <stop offset="1" stop-color="#00f038"/>
  </radialGradient>
</defs>
<g transform="translate(.5,-.5)">
<path d="m55.09091,27.72727a27.54545,27.54545 0 1,1 -55.09091,0 27.54545,27.54545 0 1,1 55.09091,0z" fill="url(#green2)" stroke="#00be31" stroke-linecap="round" stroke-linejoin="round" stroke-width="2.50379" transform="matrix(.99849,0,0,.99849,3.99622,4.81467)"/>
<path d="m47.25,15.71023c-9.32495,2.50827-17.62732,10.01398-19.25,19.78125-3.92457-2.60604-7.21721-7.95579-11.96875-8.21875-3.13694,1.6334-10.43387,5.86621-4.28125,8.34375 5.50452,4.27775 13.75159,8.13093 15.0625,15.5625 2.68901,2.51266 6.16687-1.05903 8.96875-2 3.47406-5.62335-.42848-13.36998 2.9375-19.34375 1.73862-5.634 7.82042-7.91464 11.28125-12-.00344-1.48312-1.36066-2.51023-2.75-2.125z" fill="#fff"/>
</g>
</svg>
