<?xml version="1.0" encoding="UTF-8" standalone="no"?>
<svg
 xmlns="http://www.w3.org/2000/svg"
 viewBox="0 0 300 300"
>
  <text
     transform="translate(13,275)"
     style="
       font-size:60px;
       font-style:italic;
       font-weight:bold;
       text-align:start;
       line-height:100%;
       text-anchor:start;
       fill:#0978ab;
       stroke:none;
       display:inline;
       font-family:DejaVu Serif Condensed
     "
  >
    lightbulb
  </text>
<g>
	<path
    fill="none"
    stroke="#231F20"
    stroke-width="0.5"
    d="M134.186,86.268c0,0,9.637,36.885,10.967,39.875   c1.329,2.991,1.993,8.309,1.993,8.309l-2.326,41.535"
  />
  <line
    fill="none"
    stroke="#231F20"
    stroke-width="0.5"
    x1="158.776"
    y1="149.736"
    x2="157.779"
    y2="175.655"
  />
	<path
    fill="none"
    stroke="#231F20"
    d="M142.827,175.324c-0.333-0.998-0.997-15.951-0.665-19.938c0.332-3.986,3.323-8.64,3.323-8.64   s0.332-13.293,3.655-14.621c3.323-1.329,0.997-22.929,0.997-22.929s-3.655-2.99-1.661-3.654c1.994-0.666,9.969,0.331,9.969,0.331   s1.992,1.661,0.331,2.327c-1.661,0.665-2.657,23.925-2.657,23.925s2.99-0.998,3.654,1.328c0,0-0.332-8.638,1.662-9.968   c1.994-1.329,10.966-35.889,10.966-35.889"
  />
	<path
    fill="none"
    stroke="#231F20"
    d="M160.105,149.073c1.994,1.66,6.646,25.585,3.656,26.251"
  />
	<path
    fill="#8D8D91"
    enable-background="new    "
    d="M127.208,173.329c0,0-0.332,7.644,1.995,7.976   c2.326,0.333-2.327,2.327-0.333,4.652c1.994,2.324-2.327,4.651,0.333,7.976c2.657,3.322-1.663,5.98,0.664,6.979   c2.326,0.995-1.661,4.318,0.665,6.313c2.326,1.994,18.608,14.62,20.601,14.288c1.996-0.332,3.656,0,3.656,0   s20.602-8.972,19.938-13.956s6.646-1.994,2.326-7.977c-4.319-5.98,4.985-3.321,0.332-7.975c-4.651-4.651,5.981-2.99-0.664-6.645   c-6.646-3.656,8.308-7.977,0.996-7.977c-7.311,0,1.33-5.315,1.33-5.315S163.096,183.632,127.208,173.329z"
  />
	<line
    fill="none"
    stroke="#231F20"
    stroke-width="0.5"
    x1="160.77"
    y1="89.923"
    x2="151.799"
    y2="106.206"
    />
  <path
    fill="none"
    stroke="#231F20"
    stroke-width="2"
    d="M174.727,90.256c0,0-12.96,0-13.957-0.333   c-0.996-0.333-26.583-4.984-26.583-4.984"
  />
	<path
    opacity="0.46"
    fill="#FFFFFF"
    d="M146.303,133.073c0,0,8.608-6.261,8.608-2.349c0,3.913,5.478,38.347,5.478,44.607   s-15.651,6.261-15.651,6.261L146.303,133.073z"
  />
	<path
   fill="#535645"
   enable-background="new    "
   d="M129.867,180.309l10.633,5.316c0,0,21.267,1.329,30.571-1.33   c9.305-2.657,1.33,1.994,1.33,1.994s-15.95,5.982-35.556,2.658c-19.606-3.322,0,1.661,0,1.661l4.319,0.997l-1.993,0.666   c0,0,11.631,2.656,17.612,0.995s12.627-2.326,13.955-2.989c1.33-0.664,0.333,3.322,0.333,3.322s2.991,0-2.989,1.994   c-5.982,1.992-27.582,2.991-28.911,0.997c-1.33-1.993-4.652-0.332-4.652-0.332l6.979,1.993l-3.323,1.328   c0,0,22.263,3.324,29.574-0.662c7.311-3.99,4.32-1.663,4.32-1.663l-0.664,2.658c0,0-0.998,2.659-5.648,3.324   c-4.652,0.663-26.917,2.325-28.579,0c-1.661-2.326,0,1.661,0,1.661l2.991,1.328l-3.656,0.664c0,0,27.581,3.324,32.565-1.328   c4.984-4.651,3.323-0.997,3.323-0.997l-1.663,3.322c0,0-23.259,6.979-32.896,1.664c0,0,15.617,7.31,32.233,0.663   c16.614-6.646-4.319,2.326-4.319,3.987c0,1.662-1.994,2.991-1.994,2.991l13.291-12.628c0,0,1.994-3.654,0.664-5.317   c-1.328-1.662,0-5.981,0-5.981l-0.664-6.313l1.661-5.981l-0.664-3.988c0,0-45.524,0.664-48.183-1.66   C127.208,172.998,135.184,180.309,129.867,180.309z"
  />
	<g
    opacity="0.82"
  >		
		<radialGradient
     id="SVGID_1_"
     cx="-57.9375"
     cy="332.7637"
     r="79.3121"
     gradientTransform="matrix(1 0 0 -1 194 403)"
     gradientUnits="userSpaceOnUse"
    >
		  <stop
        offset="0"
        style="stop-color:#FFFFFF"
      />
			<stop
        offset="1"
        style="stop-color:#A2A2A2"
      />
		</radialGradient>
		<path
      opacity="0.75"
      fill="url(#SVGID_1_)"
      d="M178.047,175.42c0,0,1.045-1.338,4.525-5.687c3.48-4.35-1.393-12.712,1.392-16.059    c2.785-3.344,23.666-42.148,28.191-62.89c4.524-20.74-10.63-60.579-58.813-64.899h1.994    c-49.512-0.331-66.792,44.196-62.472,64.798c4.32,20.604,24.257,59.15,26.917,62.473c2.657,3.323-1.994,11.631,1.329,15.95    c3.323,4.319,14.289,7.976,14.289,7.976"
    />
		<path
      opacity="0.8"
      fill="#3F3B3C"
      d="M130.082,175.088c-0.757-1.129-7.569-2.079-8.799-3.782c-0.556-0.825,0.369-0.769-0.173-2.199        c-0.496-1.339-1.064-4.585-0.997-5.982c0.122-2.778-0.309-4.767-0.415-7.496c-0.082-0.639-0.171-1.297-0.504-1.737        c-0.364-0.563-0.897-1.352-1.257-2.001c-0.795-1.369-1.543-2.769-2.291-4.183c-5.931-11.314-11.415-23.556-14.438-31.112        c-2.373-5.802-4.001-10.303-5.105-13.711c-0.894-2.888,1.122,3.818,5.105,13.711c1.81,4.409,4.047,9.576,6.847,15.577        c-3.313-7.554-6.233-14.925-8.131-20.268c-1.535-3.868-2.992-7.814-4.294-11.886c-1.388-4.473-2.774-8.979-3.082-13.581        c-0.252-4.613,0.301-9.225,1.382-13.686c2.157-8.931,6.377-17.323,12.22-24.479c2.13-2.579,5.782-6.514,10.063-9.651        c4.225-3.212,8.948-5.62,11.94-6.844c-12.463,5.315-22.776,15.262-28.906,27.354c-6.093,11.975-8.942,26.375-3.839,39.253        c-0.201-0.713-0.417-1.417-0.593-2.12c-4.675-13.703-0.436-28.729,6.701-40.758c1.262-2.053,2.604-4.095,4.195-6.032        c-1.545,1.901-2.901,3.949-4.195,6.032c-3.23,5.413-5.619,11.152-7.145,17.837c-0.994,4.11-1.59,8.949-1.336,13.166        c0.212,3.412,0.956,6.535,1.78,9.755c0.587,2.054,1.225,4.097,1.915,6.125c0.217,0.586,0.439,1.217,0.679,1.861l-0.022-0.083        c-0.258-2.51-7.093-16.869-2.371-31.654c1.87-7.284,5.34-14.183,8.908-19.323c3.563-5.172,7.123-8.641,8.726-10.116        c5.055-4.75,10.272-8.679,17.538-11.641c2.435-0.961,4.569-1.546,6.49-2.129c0.177-0.104,1.129-0.438,2.105-0.711        c5.103-1.241,10.378-1.453,14.401-1.693c0.353-0.02,0.785-0.022,1.273-0.012c0.244,0.004,0.5,0.013,0.77,0.023l0.101,0.004        c-0.005,1.836,0.012-2.5,0.007-2.054h-0.002l-0.008-0.001h-0.012l-0.026-0.002l-0.053-0.002l-0.209-0.014l-0.43-0.03        l-0.892-0.069l-0.227-0.018l-0.115-0.01l-0.015,0h-0.004c0.093-2.097-0.129,2.853-0.104,2.345l0.006,0l0.029,0.006        l0.056,0.012l0.449,0.091l1.796,0.375c2.359,0.449,4.381,1.099,4.697,1.028c2.283-0.293,0.666-0.209,7.059,1.449        c0.776,0.191,3.35,0.675,4.852,1.258c4.986,2.085,6.584,2.461,12.006,5.508c3.984,2.331,6.17,4.143,8.163,5.93        c2.011,1.779,3.847,3.553,6.667,6.559c0.355,0.353,2.6,3.008,4.465,5.802c1.85,2.8,3.337,5.685,3.319,5.69        c4.173,9.16,5.685,15.573,5.234,23.398c0.274,9.101-5.147,20.571-8.725,29.547c-3.821,9.019-5.925,12.563-9.999,20.099        c-1.139,2.165-1.953,3.809-2.695,5.029c-0.742,1.223-2.115,4.411-3.338,6.527l0.124-0.626        c-0.406,0.712-1.222,2.11-1.636,2.812c-0.418,0.695-0.371,0.485-0.326,0.281c0.09-0.415,0.176-0.827-0.609,0.352        c-0.854,1.361-1.875,3.035-2.648,4c-1.922,2.576-1.508,5.023-1.411,6.862c0.554,3.66,1.405,7.05,0.411,8.969        c-0.009,0.155,0.039,0.281-0.137,0.654l-1.801,2.488c-0.234,0.601,0.059,0.568-0.098,0.971        c0.426,0.335-1.824,4.033-0.793,3.532c0.303-0.411,4.217-4.45,5.834-7.152c0.318-0.644-0.031,0.982-0.395,1.709        c1.186-1.832,1.215-2.979,1.382-3.289c0.09-0.335,0.226,0.003,0.089,0.885c0.272-0.981,0.285-1.916,0.307-1.918        c0.052,0.231,0.16,0.983,0.161,0.986c0.382-2.655-0.045-5.048-0.254-7.272c-0.123-1.109-0.194-2.171-0.12-3.037        c0.024-0.437,0.107-0.811,0.219-1.021c0.176-0.397-0.031-0.005,0.627-0.9c2.838-4.132,4.933-8.081,6.903-11.991        c0.841-1.653,2.126-4.463,2.966-6.34c0.422-0.937,1.531-2.914,1.909-3.646c0.479-1.372,0.195-1.278,0.292-1.913        c3.047-5.597,8.879-18.123,8.008-18.036c1.98-4.749,2.067-5.823,3.85-10.876c1.128-3.37,2.368-7.203,3.215-11.442        c0.834-4.298,0.782-8.9,0.191-13.357c-0.724-4.866-1.978-9.449-3.813-13.844c-0.66-1.648-1.42-3.201-2.172-4.66        c-8.323-15.846-21.938-25.593-36.434-30.286c-3.65-1.164-7.369-2.117-11.172-2.707c-1.894-0.36-3.815-0.541-5.744-0.766        l-0.723-0.083l-0.023-0.002c0.084-2.127-0.144,2.894-0.107,2.377h0.045h0.09h0.18h0.359l0.721-0.002h0.362h0.181h0.045        c0.01-4.752-0.01-1.317-0.014-2.378h-0.022l-0.093,0.002l-2.944,0.07c-7.857,0.241-16.046,1.735-24,5.211        c-16.22,6.833-28.768,21.591-33.926,37.994c-2.593,8.142-3.742,16.913-1.647,24.959c1.958,7.936,4.75,15.291,7.498,22.2        c5.606,13.788,11.285,25.741,16.281,35.143c0.655,1.189,1.227,2.276,2.018,3.445c0.64,0.837,0.694,1.456,0.713,2.55        c-0.046,2.024-0.528,4.128-0.741,6.113c-0.233,1.976-0.285,3.966,0.36,5.774c1.639,4.232,5.993,7.038,4.619,4.934        C124.502,174.352,129.033,173.834,130.082,175.088z"
    />
	</g>
  <g
    opacity="0.5"
    fill="#FFFFFF"
  >
  	<path
      d="M116.908,60.349l18.608,5.98c0,0,33.894-7.975,46.854,2.991s12.295,3.988,12.295,3.988   s-1.329-31.568-35.556-35.555C124.882,33.764,116.908,60.349,116.908,60.349z"
    />
  	<path
      d="M120.23,93.58l7.976,1.992l10.301,3.323l8.972,1.994l21.931-1.994l14.953,3.654   l-5.316,25.255l-17.28,7.644l-11.961-8.308l-3.323,4.985l-3.323,3.988l-7.643-0.665C135.516,135.448,122.556,93.58,120.23,93.58z"
    />
  	<path
      d="M141.165,30.11c0,0-30.238,0.665-37.881,45.524c-7.644,44.861,5.316,46.854,5.316,46.854   s-22.305-16.161-12.295-51.507C106.938,33.433,139.503,30.11,141.165,30.11z"
    />
  	<path
      d="M164.834,31.107c0,0,30.238,0.664,37.881,45.523c7.643,44.862-5.317,46.855-5.317,46.855   s22.306-16.161,12.296-51.506C199.061,34.429,166.495,31.107,164.834,31.107z"
    />
  	<path
      d="M171.736,184.628c0,0-11.299,1.661-15.951,2.326   s-17.278,0.665-18.608,0c-1.329-0.665,9.305,2.99,15.952,2.659C159.773,189.279,169.078,187.951,171.736,184.628z"
    />
  	<path
      d="M170.075,205.563c0,0,1.329,0.996-0.333,2.658   c-1.66,1.66-7.643,2.659-16.283,2.991c-8.639,0.332-16.282-1.66-16.282-1.66s9.636-0.333,14.289-0.999   C156.119,207.888,167.084,207.888,170.075,205.563z"
    />
  	<path
      d="M170.406,191.938c0,0-4.984,5.647-17.277,5.316   c-12.296-0.332-16.283-1.661-16.283-1.661s15.285-0.332,17.943-0.996C157.447,193.933,168.745,192.934,170.406,191.938z"
    />
  	<path
      d="M171.404,198.252c0,0-0.333,2.659-7.311,4.985   c-6.979,2.325-22.264,0.663-23.925,0.331c-1.662-0.331,9.304-0.331,13.957-1.329C158.776,201.242,169.742,201.242,171.404,198.252z   "
    />
  	<path
      fill="#363638"
      d="M144.489,217.525c0,0,9.968,0.664,15.617-0.664   c5.65-1.329,1.661,1.328,1.661,1.328l-6.978,3.323l-4.984-0.332L144.489,217.525z"
    />
  	<path
      fill="#937E53"
      d="M127.974,171.257c0,0,13.957-5.648,24.589-5.315   c10.634,0.332,21.932,1.994,22.264,2.989c0.333,0.997,2.891,8.054,2.891,8.054s-11.529,1.915-25.818,0.918   C137.609,176.906,127.308,175.576,127.974,171.257z"
    />
  </g>
</g></svg>